{
  "accessors": [
    {
      "bufferView": 2,
      "componentType": 5126,
      "count": 5089,
      "max": [
        1.1984895467758179,
        1.0498557090759277,
        1.305762767791748
      ],
      "min": [
        -1.2045063972473145,
        -1.0361274480819702,
        -1.5800958871841431
      ],
      "type": "VEC3"
    },
    {
      "bufferView": 2,
      "byteOffset": 61068,
      "componentType": 5126,
      "count": 5089,
      "max": [
        0.99975168704986572,
        0.9999840259552002,
        0.9994882345199585
      ],
      "min": [
        -0.99975115060806274,
        -0.99993991851806641,
        -0.99916881322860718
      ],
      "type": "VEC3"
    },
    {
      "bufferView": 3,
      "componentType": 5126,
      "count": 5089,
      "max": [
        0.99929332733154297,
        0.99510908126831055,
        0.99775630235671997,
        1
      ],
      "min": [
        -0.99988400936126709,
        -0.9999774694442749,
        -0.998485267162323,
        1
      ],
      "type": "VEC4"
    },
    {
      "bufferView": 1,
      "componentType": 5126,
      "count": 5089,
      "max": [
        0.99804002046585083,
        0.93715000152587891
      ],
      "min": [
        0.0019499999471008778,
        0.0019499999471008778
      ],
      "type": "VEC2"
    },
    {
      "bufferView": 0,
      "componentType": 5125,
      "count": 29250,
      "max": [
        5088
      ],
      "min": [
        0
      ],
      "type": "SCALAR"
    }
  ],
  "asset": {
    "extras": {
      "author": "isuru chamika (https://sketchfab.com/isuruchamika)",
      "license": "CC-BY-4.0 (http://creativecommons.org/licenses/by/4.0/)",
      "source": "https://sketchfab.com/3d-models/mosnter-fa54ccc58a3e4ae2954c49f80acda636",
      "title": "Mosnter"
    },
    "generator": "Sketchfab-7.27.0",
    "version": "2.0"
  },
  "bufferViews": [
    {
      "buffer": 0,
      "byteLength": 117000,
      "byteOffset": 0,
      "name": "floatBufferViews",
      "target": 34963
    },
    {
      "buffer": 0,
      "byteLength": 40712,
      "byteOffset": 117000,
      "byteStride": 8,
      "name": "floatBufferViews",
      "target": 34962
    },
    {
      "buffer": 0,
      "byteLength": 122136,
      "byteOffset": 157712,
      "byteStride": 12,
      "name": "floatBufferViews",
      "target": 34962
    },
    {
      "buffer": 0,
      "byteLength": 81424,
      "byteOffset": 279848,
      "byteStride": 16,
      "name": "floatBufferViews",
      "target": 34962
    }
  ],
  "buffers": [
    {
      "byteLength": 361272,
      "uri": "scene.bin"
    }
  ],
  "images": [
    {
      "uri": "textures/defaultMat_baseColor.png"
    }
  ],
  "materials": [
    {
      "doubleSided": true,
      "emissiveFactor": [
        0,
        0,
        0
      ],
      "name": "defaultMat",
      "pbrMetallicRoughness": {
        "baseColorFactor": [
          1,
          1,
          1,
          1
        ],
        "baseColorTexture": {
          "index": 0,
          "texCoord": 0
        },
        "metallicFactor": 0,
        "roughnessFactor": 0.84863864525433141
      }
    }
  ],
  "meshes": [
    {
      "name": "Group27716_defaultMat_0",
      "primitives": [
        {
          "attributes": {
            "NORMAL": 1,
            "POSITION": 0,
            "TANGENT": 2,
            "TEXCOORD_0": 3
          },
          "indices": 4,
          "material": 0,
          "mode": 4
        }
      ]
    }
  ],
  "nodes": [
    {
      "children": [
        1
      ],
      "name": "RootNode (gltf orientation matrix)",
      "rotation": [
        -0.70710678118654746,
        -0,
        -0,
        0.70710678118654757
      ]
    },
    {
      "children": [
        2
      ],
      "name": "RootNode (model correction matrix)"
    },
    {
      "children": [
        3
      ],
      "matrix": [
        1,
        0,
        0,
        0,
        0,
        0,
        1,
        0,
        0,
        -1,
        0,
        0,
        0,
        0,
        0,
        1
      ],
      "name": "a413c015f08f4ea499adbc041d1ab69b.fbx"
    },
    {
      "children": [
        4
      ],
      "name": "RootNode"
    },
    {
      "children": [
        5
      ],
      "matrix": [
        -0.99996635410704293,
        -0.0082030880690323899,
        -1.2403272853234171e-16,
        0,
        1.214306433183765e-16,
        1.1102230246251565e-16,
        -1,
        0,
        0.0082030880690323917,
        -0.99996635410704282,
        -4.4408920985006262e-16,
        0,
        -0.02286059781908989,
        1.2228564023971558,
        0,
        1
      ],
      "name": "Group27716"
    },
    {
      "mesh": 0,
      "name": "Group27716_defaultMat_0"
    }
  ],
  "samplers": [
    {
      "magFilter": 9729,
      "minFilter": 9987,
      "wrapS": 10497,
      "wrapT": 10497
    }
  ],
  "scene": 0,
  "scenes": [
    {
      "name": "OSG_Scene",
      "nodes": [
        0
      ]
    }
  ],
  "textures": [
    {
      "sampler": 0,
      "source": 0
    }
  ]
}

