{"accessors" : [{"bufferView" : 0, "byteOffset" : 0, "componentType" : 5125, "count" : 33980124, "type" : "SCALAR", "max" : [5656248], "min" : [0]}, {"bufferView" : 1, "byteOffset" : 0, "componentType" : 5126, "count" : 5656249, "type" : "VEC3", "max" : [460.099853515625, 2158.07495117188, 949.579650878906], "min" : [-737.083618164063, -2.63453193838359E-06, -974.452209472656]}, {"bufferView" : 1, "byteOffset" : 12, "componentType" : 5126, "count" : 5656249, "type" : "VEC4", "max" : [0, 0, 0, 0], "min" : [0, 0, 0, 0]}], "asset" : {"generator" : "Aspose.3D 19.11", "version" : "2.0"}, "buffers" : [{"uri" : "buffer.bin", "byteLength" : 294295476}], "bufferViews" : [{"buffer" : 0, "byteOffset" : 0, "byteLength" : 135920496, "target" : 34963}, {"buffer" : 0, "byteOffset" : 135920500, "byteLength" : 158374972, "byteStride" : 28, "target" : 34962}], "meshes" : [{"primitives" : [{"attributes" : {"POSITION" : 1, "COLOR" : 2}, "indices" : 0, "mode" : 4}]}], "nodes" : [{"mesh" : 0, "name" : "model"}], "scene" : 0, "scenes" : [{"nodes" : [0]}]}