{"accessors":[{"bufferView":0,"componentType":5125,"count":636,"max":[331.0],"min":[0.0],"type":"SCALAR"},{"bufferView":1,"componentType":5126,"count":332,"max":[4.655265808105469,4.18311882019043,0.5080000162124634],"min":[1.6679283380508423,2.8654427528381349,0.0],"type":"VEC3"},{"bufferView":2,"componentType":5126,"count":332,"max":[0.9994494318962097,0.9998636841773987,1.0],"min":[-0.9978031516075134,-1.0,-1.0],"type":"VEC3"},{"bufferView":3,"componentType":5126,"count":332,"max":[1.0,1.0],"min":[-1.1102230246251566e-16,0.0],"type":"VEC2"},{"bufferView":4,"componentType":5125,"count":780,"max":[407.0],"min":[0.0],"type":"SCALAR"},{"bufferView":5,"componentType":5126,"count":408,"max":[3.829468250274658,2.764559745788574,0.5080000162124634],"min":[0.006690334528684616,0.0030530025251209738,0.0],"type":"VEC3"},{"bufferView":6,"componentType":5126,"count":408,"max":[0.9966258406639099,0.9999850392341614,1.0],"min":[-0.9959139823913574,-0.9994167685508728,-1.0],"type":"VEC3"},{"bufferView":7,"componentType":5126,"count":408,"max":[1.0,1.0],"min":[0.0,0.0],"type":"VEC2"},{"bufferView":8,"componentType":5125,"count":336,"max":[174.0],"min":[0.0],"type":"SCALAR"},{"bufferView":9,"componentType":5126,"count":175,"max":[6.557967185974121,2.4384000301361086,0.5080000162124634],"min":[4.927939414978027,1.99371337890625,-2.220446049250313e-16],"type":"VEC3"},{"bufferView":10,"componentType":5126,"count":175,"max":[0.9934453368186951,1.0,1.0],"min":[-0.998836100101471,-1.0,-1.0],"type":"VEC3"},{"bufferView":11,"componentType":5126,"count":175,"max":[1.0,1.0],"min":[-4.440892098500626e-16,0.0],"type":"VEC2"},{"bufferView":12,"componentType":5125,"count":780,"max":[389.0],"min":[0.0],"type":"SCALAR"},{"bufferView":13,"componentType":5126,"count":390,"max":[8.5070219039917,2.4384000301361086,0.5080000162124634],"min":[6.553199768066406,1.0442218780517579,-2.220446049250313e-16],"type":"VEC3"},{"bufferView":14,"componentType":5126,"count":390,"max":[0.9979793429374695,0.9999988079071045,1.0],"min":[-1.0,-1.0,-1.0],"type":"VEC3"},{"bufferView":15,"componentType":5126,"count":390,"max":[1.0,1.0],"min":[0.0,0.0],"type":"VEC2"},{"bufferView":16,"componentType":5125,"count":780,"max":[391.0],"min":[0.0],"type":"SCALAR"},{"bufferView":17,"componentType":5126,"count":392,"max":[10.410566329956055,2.440553903579712,0.5080000162124634],"min":[8.508456230163575,1.0413999557495118,-2.220446049250313e-16],"type":"VEC3"},{"bufferView":18,"componentType":5126,"count":392,"max":[0.9999997615814209,1.0,1.0],"min":[-0.9920777678489685,-1.0,-1.0],"type":"VEC3"},{"bufferView":19,"componentType":5126,"count":392,"max":[1.0,1.0],"min":[0.0,0.0],"type":"VEC2"},{"bufferView":20,"componentType":5125,"count":828,"max":[410.0],"min":[0.0],"type":"SCALAR"},{"bufferView":21,"componentType":5126,"count":411,"max":[12.399236679077149,2.4384000301361086,0.5080000162124634],"min":[10.414340019226075,1.0393545627593995,-2.220446049250313e-16],"type":"VEC3"},{"bufferView":22,"componentType":5126,"count":411,"max":[0.996340811252594,1.0,1.0],"min":[-0.9961457252502441,-1.0,-1.0],"type":"VEC3"},{"bufferView":23,"componentType":5126,"count":411,"max":[1.0,1.0],"min":[0.0,0.0],"type":"VEC2"},{"bufferView":24,"componentType":5125,"count":288,"max":[151.0],"min":[0.0],"type":"SCALAR"},{"bufferView":25,"componentType":5126,"count":152,"max":[14.254166603088379,2.4384000301361086,0.5080000162124634],"min":[12.568964004516602,2.0065999031066896,-2.220446049250313e-16],"type":"VEC3"},{"bufferView":26,"componentType":5126,"count":152,"max":[0.9910247325897217,1.0,1.0],"min":[-0.981920063495636,-1.0,-1.0],"type":"VEC3"},{"bufferView":27,"componentType":5126,"count":152,"max":[1.0,1.0],"min":[0.0,0.0],"type":"VEC2"},{"bufferView":28,"componentType":5125,"count":888,"max":[450.0],"min":[2.0],"type":"SCALAR"},{"bufferView":29,"componentType":5126,"count":451,"max":[16.840200424194337,2.4384000301361086,0.5080000162124634],"min":[14.764143943786621,1.0413999557495118,-2.220446049250313e-16],"type":"VEC3"},{"bufferView":30,"componentType":5126,"count":451,"max":[1.0,1.0,1.0],"min":[-0.9854773283004761,-1.0,-1.0],"type":"VEC3"},{"bufferView":31,"componentType":5126,"count":451,"max":[1.0,1.0],"min":[-8.881784197001253e-16,0.0],"type":"VEC2"},{"bufferView":32,"componentType":5125,"count":456,"max":[231.0],"min":[0.0],"type":"SCALAR"},{"bufferView":33,"componentType":5126,"count":232,"max":[18.694400787353517,2.43776798248291,0.5080000162124634],"min":[16.72922134399414,1.0413999557495118,-2.220446049250313e-16],"type":"VEC3"},{"bufferView":34,"componentType":5126,"count":232,"max":[1.0,0.9994849562644959,1.0],"min":[-0.9739461541175842,-1.0,-1.0],"type":"VEC3"},{"bufferView":35,"componentType":5126,"count":232,"max":[1.0,1.0],"min":[0.0,0.0],"type":"VEC2"},{"bufferView":36,"componentType":5125,"count":876,"max":[445.0],"min":[2.0],"type":"SCALAR"},{"bufferView":37,"componentType":5126,"count":446,"max":[20.904199600219728,2.4384000301361086,0.5080000162124634],"min":[18.817363739013673,1.0413999557495118,-2.220446049250313e-16],"type":"VEC3"},{"bufferView":38,"componentType":5126,"count":446,"max":[1.0,1.0,1.0],"min":[-0.9854772686958313,-1.0,-1.0],"type":"VEC3"},{"bufferView":39,"componentType":5126,"count":446,"max":[1.0,1.0],"min":[0.0,0.0],"type":"VEC2"},{"bufferView":40,"componentType":5125,"count":864,"max":[433.0],"min":[0.0],"type":"SCALAR"},{"bufferView":41,"componentType":5126,"count":434,"max":[22.854219436645509,2.4331302642822267,0.5080000162124634],"min":[20.901165008544923,1.0428801774978638,-2.220446049250313e-16],"type":"VEC3"},{"bufferView":42,"componentType":5126,"count":434,"max":[0.9971895217895508,1.0,1.0],"min":[-0.9995357394218445,-1.0,-1.0],"type":"VEC3"},{"bufferView":43,"componentType":5126,"count":434,"max":[1.0,1.0],"min":[0.0,0.0],"type":"VEC2"},{"bufferView":44,"componentType":5125,"count":288,"max":[147.0],"min":[0.0],"type":"SCALAR"},{"bufferView":45,"componentType":5126,"count":148,"max":[6.2904791831970219,1.854200005531311,0.5080000162124634],"min":[4.750041484832764,1.0413999557495118,0.0],"type":"VEC3"},{"bufferView":46,"componentType":5126,"count":148,"max":[0.9872791171073914,1.0,1.0],"min":[-1.0,-1.0,-1.0],"type":"VEC3"},{"bufferView":47,"componentType":5126,"count":148,"max":[1.0,1.0],"min":[0.0,0.0],"type":"VEC2"},{"bufferView":48,"componentType":5125,"count":264,"max":[136.0],"min":[0.0],"type":"SCALAR"},{"bufferView":49,"componentType":5126,"count":137,"max":[14.061537742614746,1.854200005531311,0.5080000162124634],"min":[12.394231796264649,1.0413999557495118,-2.220446049250313e-16],"type":"VEC3"},{"bufferView":50,"componentType":5126,"count":137,"max":[1.0,1.0,1.0],"min":[-0.9843876361846924,-1.0,-1.0],"type":"VEC3"},{"bufferView":51,"componentType":5126,"count":137,"max":[1.0,1.0],"min":[-8.881784197001253e-16,0.0],"type":"VEC2"},{"bufferView":52,"componentType":5125,"count":372,"max":[160.0],"min":[0.0],"type":"SCALAR"},{"bufferView":53,"componentType":5126,"count":161,"max":[18.00860023498535,1.4683281183242798,0.5080000162124634],"min":[17.58167266845703,1.0413999557495118,0.0],"type":"VEC3"},{"bufferView":54,"componentType":5126,"count":161,"max":[1.0,0.9985008239746094,1.0],"min":[-0.9985008239746094,-1.0,-1.0],"type":"VEC3"},{"bufferView":55,"componentType":5126,"count":161,"max":[1.0,1.0],"min":[0.0,0.0],"type":"VEC2"},{"bufferView":56,"componentType":5125,"count":444,"max":[211.0],"min":[0.0],"type":"SCALAR"},{"bufferView":57,"componentType":5126,"count":212,"max":[2.99259614944458,1.3204472064971924,0.5080000162124634],"min":[1.668533444404602,0.004117119126021862,0.0],"type":"VEC3"},{"bufferView":58,"componentType":5126,"count":212,"max":[0.9988095760345459,0.99997478723526,1.0],"min":[-0.9998763203620911,-0.9983747005462647,-1.0],"type":"VEC3"},{"bufferView":59,"componentType":5126,"count":212,"max":[1.0,1.0],"min":[-2.220446049250313e-16,0.0],"type":"VEC2"}],"asset":{"generator":"SimLab GLTF","version":"2.0"},"bufferViews":[{"buffer":0,"byteLength":2544,"target":34963},{"buffer":0,"byteLength":3984,"byteOffset":2544,"byteStride":12,"target":34962},{"buffer":0,"byteLength":3984,"byteOffset":6528,"byteStride":12,"target":34962},{"buffer":0,"byteLength":2656,"byteOffset":10512,"byteStride":8,"target":34962},{"buffer":0,"byteLength":3120,"byteOffset":13168,"target":34963},{"buffer":0,"byteLength":4896,"byteOffset":16288,"byteStride":12,"target":34962},{"buffer":0,"byteLength":4896,"byteOffset":21184,"byteStride":12,"target":34962},{"buffer":0,"byteLength":3264,"byteOffset":26080,"byteStride":8,"target":34962},{"buffer":0,"byteLength":1344,"byteOffset":29344,"target":34963},{"buffer":0,"byteLength":2100,"byteOffset":30688,"byteStride":12,"target":34962},{"buffer":0,"byteLength":2100,"byteOffset":32788,"byteStride":12,"target":34962},{"buffer":0,"byteLength":1400,"byteOffset":34888,"byteStride":8,"target":34962},{"buffer":0,"byteLength":3120,"byteOffset":36288,"target":34963},{"buffer":0,"byteLength":4680,"byteOffset":39408,"byteStride":12,"target":34962},{"buffer":0,"byteLength":4680,"byteOffset":44088,"byteStride":12,"target":34962},{"buffer":0,"byteLength":3120,"byteOffset":48768,"byteStride":8,"target":34962},{"buffer":0,"byteLength":3120,"byteOffset":51888,"target":34963},{"buffer":0,"byteLength":4704,"byteOffset":55008,"byteStride":12,"target":34962},{"buffer":0,"byteLength":4704,"byteOffset":59712,"byteStride":12,"target":34962},{"buffer":0,"byteLength":3136,"byteOffset":64416,"byteStride":8,"target":34962},{"buffer":0,"byteLength":3312,"byteOffset":67552,"target":34963},{"buffer":0,"byteLength":4932,"byteOffset":70864,"byteStride":12,"target":34962},{"buffer":0,"byteLength":4932,"byteOffset":75796,"byteStride":12,"target":34962},{"buffer":0,"byteLength":3288,"byteOffset":80728,"byteStride":8,"target":34962},{"buffer":0,"byteLength":1152,"byteOffset":84016,"target":34963},{"buffer":0,"byteLength":1824,"byteOffset":85168,"byteStride":12,"target":34962},{"buffer":0,"byteLength":1824,"byteOffset":86992,"byteStride":12,"target":34962},{"buffer":0,"byteLength":1216,"byteOffset":88816,"byteStride":8,"target":34962},{"buffer":0,"byteLength":3552,"byteOffset":90032,"target":34963},{"buffer":0,"byteLength":5412,"byteOffset":93584,"byteStride":12,"target":34962},{"buffer":0,"byteLength":5412,"byteOffset":98996,"byteStride":12,"target":34962},{"buffer":0,"byteLength":3608,"byteOffset":104408,"byteStride":8,"target":34962},{"buffer":0,"byteLength":1824,"byteOffset":108016,"target":34963},{"buffer":0,"byteLength":2784,"byteOffset":109840,"byteStride":12,"target":34962},{"buffer":0,"byteLength":2784,"byteOffset":112624,"byteStride":12,"target":34962},{"buffer":0,"byteLength":1856,"byteOffset":115408,"byteStride":8,"target":34962},{"buffer":0,"byteLength":3504,"byteOffset":117264,"target":34963},{"buffer":0,"byteLength":5352,"byteOffset":120768,"byteStride":12,"target":34962},{"buffer":0,"byteLength":5352,"byteOffset":126120,"byteStride":12,"target":34962},{"buffer":0,"byteLength":3568,"byteOffset":131472,"byteStride":8,"target":34962},{"buffer":0,"byteLength":3456,"byteOffset":135040,"target":34963},{"buffer":0,"byteLength":5208,"byteOffset":138496,"byteStride":12,"target":34962},{"buffer":0,"byteLength":5208,"byteOffset":143704,"byteStride":12,"target":34962},{"buffer":0,"byteLength":3472,"byteOffset":148912,"byteStride":8,"target":34962},{"buffer":0,"byteLength":1152,"byteOffset":152384,"target":34963},{"buffer":0,"byteLength":1776,"byteOffset":153536,"byteStride":12,"target":34962},{"buffer":0,"byteLength":1776,"byteOffset":155312,"byteStride":12,"target":34962},{"buffer":0,"byteLength":1184,"byteOffset":157088,"byteStride":8,"target":34962},{"buffer":0,"byteLength":1056,"byteOffset":158272,"target":34963},{"buffer":0,"byteLength":1644,"byteOffset":159328,"byteStride":12,"target":34962},{"buffer":0,"byteLength":1644,"byteOffset":160972,"byteStride":12,"target":34962},{"buffer":0,"byteLength":1096,"byteOffset":162616,"byteStride":8,"target":34962},{"buffer":0,"byteLength":1488,"byteOffset":163712,"target":34963},{"buffer":0,"byteLength":1932,"byteOffset":165200,"byteStride":12,"target":34962},{"buffer":0,"byteLength":1932,"byteOffset":167132,"byteStride":12,"target":34962},{"buffer":0,"byteLength":1288,"byteOffset":169064,"byteStride":8,"target":34962},{"buffer":0,"byteLength":1776,"byteOffset":170352,"target":34963},{"buffer":0,"byteLength":2544,"byteOffset":172128,"byteStride":12,"target":34962},{"buffer":0,"byteLength":2544,"byteOffset":174672,"byteStride":12,"target":34962},{"buffer":0,"byteLength":1696,"byteOffset":177216,"byteStride":8,"target":34962}],"buffers":[{"byteLength":178912,"uri":"ForgeNanoOfficialLogo.bin"}],"materials":[{"alphaMode":"OPAQUE","doubleSided":true,"pbrMetallicRoughness":{"baseColorFactor":[0.42000001668930056,0.42000001668930056,0.42000001668930056,1.0],"metallicFactor":0.0}},{"alphaMode":"OPAQUE","doubleSided":true,"pbrMetallicRoughness":{"baseColorFactor":[0.0,0.14000000059604646,0.2800000011920929,1.0],"metallicFactor":0.0}}],"meshes":[{"primitives":[{"attributes":{"NORMAL":2,"POSITION":1,"TEXCOORD_0":3},"indices":0,"material":0,"mode":4}]},{"primitives":[{"attributes":{"NORMAL":6,"POSITION":5,"TEXCOORD_0":7},"indices":4,"material":1,"mode":4}]},{"primitives":[{"attributes":{"NORMAL":10,"POSITION":9,"TEXCOORD_0":11},"indices":8,"material":1,"mode":4}]},{"primitives":[{"attributes":{"NORMAL":14,"POSITION":13,"TEXCOORD_0":15},"indices":12,"material":1,"mode":4}]},{"primitives":[{"attributes":{"NORMAL":18,"POSITION":17,"TEXCOORD_0":19},"indices":16,"material":1,"mode":4}]},{"primitives":[{"attributes":{"NORMAL":22,"POSITION":21,"TEXCOORD_0":23},"indices":20,"material":1,"mode":4}]},{"primitives":[{"attributes":{"NORMAL":26,"POSITION":25,"TEXCOORD_0":27},"indices":24,"material":1,"mode":4}]},{"primitives":[{"attributes":{"NORMAL":30,"POSITION":29,"TEXCOORD_0":31},"indices":28,"material":0,"mode":4}]},{"primitives":[{"attributes":{"NORMAL":34,"POSITION":33,"TEXCOORD_0":35},"indices":32,"material":0,"mode":4}]},{"primitives":[{"attributes":{"NORMAL":38,"POSITION":37,"TEXCOORD_0":39},"indices":36,"material":0,"mode":4}]},{"primitives":[{"attributes":{"NORMAL":42,"POSITION":41,"TEXCOORD_0":43},"indices":40,"material":0,"mode":4}]},{"primitives":[{"attributes":{"NORMAL":46,"POSITION":45,"TEXCOORD_0":47},"indices":44,"material":1,"mode":4}]},{"primitives":[{"attributes":{"NORMAL":50,"POSITION":49,"TEXCOORD_0":51},"indices":48,"material":1,"mode":4}]},{"primitives":[{"attributes":{"NORMAL":54,"POSITION":53,"TEXCOORD_0":55},"indices":52,"material":1,"mode":4}]},{"primitives":[{"attributes":{"NORMAL":58,"POSITION":57,"TEXCOORD_0":59},"indices":56,"material":0,"mode":4}]}],"nodes":[{"children":[1,2,5,8,11,14,17,20,23,26,29,32,35,38,41,44],"matrix":[1.0,0.0,0.0,0.0,0.0,4.4896593387466768e-11,-1.0,0.0,0.0,1.0,4.4896593387466768e-11,0.0,0.0,0.0,0.0,1.0]},{"name":"Camera~1","rotation":[-0.7071067690849304,0.0,0.0,-0.7071067690849304],"translation":[11.430455207824707,-89.29702758789063,0.2540000081062317]},{"name":"Body_1","children":[4],"rotation":[0.0,0.0,0.0,-1.0]},{"mesh":0},{"children":[3]},{"name":"Body_2","children":[7],"rotation":[0.0,0.0,0.0,-1.0]},{"mesh":1},{"children":[6]},{"name":"Body_3","children":[10],"rotation":[0.0,0.0,0.0,-1.0]},{"mesh":2},{"children":[9]},{"name":"Body_4","children":[13],"rotation":[0.0,0.0,0.0,-1.0]},{"mesh":3},{"children":[12]},{"name":"Body_5","children":[16],"rotation":[0.0,0.0,0.0,-1.0]},{"mesh":4},{"children":[15]},{"name":"Body_6","children":[19],"rotation":[0.0,0.0,0.0,-1.0]},{"mesh":5},{"children":[18]},{"name":"Body_7","children":[22],"rotation":[0.0,0.0,0.0,-1.0]},{"mesh":6},{"children":[21]},{"name":"Body_8","children":[25],"rotation":[0.0,0.0,0.0,-1.0]},{"mesh":7},{"children":[24]},{"name":"Body_9","children":[28],"rotation":[0.0,0.0,0.0,-1.0]},{"mesh":8},{"children":[27]},{"name":"Body_10","children":[31],"rotation":[0.0,0.0,0.0,-1.0]},{"mesh":9},{"children":[30]},{"name":"Body_11","children":[34],"rotation":[0.0,0.0,0.0,-1.0]},{"mesh":10},{"children":[33]},{"name":"Body_12","children":[37],"rotation":[0.0,0.0,0.0,-1.0]},{"mesh":11},{"children":[36]},{"name":"Body_13","children":[40],"rotation":[0.0,0.0,0.0,-1.0]},{"mesh":12},{"children":[39]},{"name":"Body_14","children":[43],"rotation":[0.0,0.0,0.0,-1.0]},{"mesh":13},{"children":[42]},{"name":"Body_15","children":[46],"rotation":[0.0,0.0,0.0,-1.0]},{"mesh":14},{"children":[45]}],"samplers":[{"wrapS":10497,"wrapT":10497}],"scene":0,"scenes":[{"nodes":[0]}]}