{
  "accessors": [
    {
      "bufferView": 2,
      "componentType": 5126,
      "count": 2347,
      "max": [
        0.39230999350547791,
        0.10927379876375198,
        1.6593250036239624
      ],
      "min": [
        -0.39227950572967529,
        -0.15081599354743958,
        0.00057956582168117166
      ],
      "type": "VEC3"
    },
    {
      "bufferView": 2,
      "byteOffset": 28164,
      "componentType": 5126,
      "count": 2347,
      "max": [
        0.99998998641967773,
        0.99214702844619751,
        0.99684250354766846
      ],
      "min": [
        -0.99998998641967773,
        -0.99998998641967773,
        -0.99961549043655396
      ],
      "type": "VEC3"
    },
    {
      "bufferView": 3,
      "componentType": 5126,
      "count": 2347,
      "max": [
        0.99906879663467407,
        0.99993133544921875,
        0.99999541044235229,
        1
      ],
      "min": [
        -0.99974590539932251,
        -0.99853384494781494,
        -0.99999988079071045,
        -1
      ],
      "type": "VEC4"
    },
    {
      "bufferView": 1,
      "componentType": 5126,
      "count": 2347,
      "max": [
        0.98907792568206787,
        0.98249000310897827
      ],
      "min": [
        0.0078999996185302734,
        0.0090000629425048828
      ],
      "type": "VEC2"
    },
    {
      "bufferView": 1,
      "byteOffset": 18776,
      "componentType": 5126,
      "count": 2347,
      "max": [
        0.98907792568206787,
        0.98249000310897827
      ],
      "min": [
        0.0078999996185302734,
        0.0090000629425048828
      ],
      "type": "VEC2"
    },
    {
      "bufferView": 0,
      "componentType": 5125,
      "count": 10491,
      "max": [
        2346
      ],
      "min": [
        0
      ],
      "type": "SCALAR"
    }
  ],
  "asset": {
    "extras": {
      "author": "woniumanmanpa (https://sketchfab.com/woniumanmanpa)",
      "license": "CC-BY-4.0 (http://creativecommons.org/licenses/by/4.0/)",
      "source": "https://sketchfab.com/3d-models/sexy-woman-jt-74caa43fe5944fb39711353ecba00f2d",
      "title": "Sexy Woman Jt"
    },
    "generator": "Sketchfab-6.9.0",
    "version": "2.0"
  },
  "bufferViews": [
    {
      "buffer": 0,
      "byteLength": 41964,
      "byteOffset": 0,
      "name": "floatBufferViews",
      "target": 34963
    },
    {
      "buffer": 0,
      "byteLength": 37552,
      "byteOffset": 41964,
      "byteStride": 8,
      "name": "floatBufferViews",
      "target": 34962
    },
    {
      "buffer": 0,
      "byteLength": 56328,
      "byteOffset": 79516,
      "byteStride": 12,
      "name": "floatBufferViews",
      "target": 34962
    },
    {
      "buffer": 0,
      "byteLength": 37552,
      "byteOffset": 135844,
      "byteStride": 16,
      "name": "floatBufferViews",
      "target": 34962
    }
  ],
  "buffers": [
    {
      "byteLength": 173396,
      "uri": "scene.bin"
    }
  ],
  "images": [
    {
      "uri": "textures/Element3dsMaterial_baseColor.png"
    },
    {
      "uri": "textures/Element3dsMaterial_normal.png"
    }
  ],
  "materials": [
    {
      "doubleSided": true,
      "emissiveFactor": [
        0,
        0,
        0
      ],
      "name": "Element3dsMaterial",
      "normalTexture": {
        "index": 1,
        "scale": 1,
        "texCoord": 1
      },
      "pbrMetallicRoughness": {
        "baseColorFactor": [
          1,
          1,
          1,
          1
        ],
        "baseColorTexture": {
          "index": 0,
          "texCoord": 0
        },
        "metallicFactor": 0,
        "roughnessFactor": 0.4560614220889998
      }
    }
  ],
  "meshes": [
    {
      "name": "element3ds.com-FE_CLR_000_Element3dsMaterial_0",
      "primitives": [
        {
          "attributes": {
            "NORMAL": 1,
            "POSITION": 0,
            "TANGENT": 2,
            "TEXCOORD_0": 3,
            "TEXCOORD_1": 4
          },
          "indices": 5,
          "material": 0,
          "mode": 4
        }
      ]
    }
  ],
  "nodes": [
    {
      "children": [
        1
      ],
      "name": "RootNode (gltf orientation matrix)",
      "rotation": [
        -0.70710678118654746,
        -0,
        -0,
        0.70710678118654757
      ]
    },
    {
      "children": [
        2
      ],
      "name": "RootNode (model correction matrix)"
    },
    {
      "children": [
        3
      ],
      "matrix": [
        1,
        0,
        0,
        0,
        0,
        0,
        1,
        0,
        0,
        -1,
        0,
        0,
        0,
        0,
        0,
        1
      ],
      "name": "a1ac2a2c83234c3c95027300769a23e1.fbx"
    },
    {
      "children": [
        4
      ],
      "name": "RootNode"
    },
    {
      "children": [
        5
      ],
      "matrix": [
        1,
        0,
        0,
        0,
        0,
        2.2204460492503131e-16,
        -1,
        0,
        0,
        1,
        2.2204460492503131e-16,
        0,
        0,
        0,
        0,
        1
      ],
      "name": "element3ds.com-FE_CLR_000"
    },
    {
      "mesh": 0,
      "name": "element3ds.com-FE_CLR_000_Element3dsMaterial_0"
    }
  ],
  "samplers": [
    {
      "magFilter": 9728,
      "minFilter": 9728,
      "wrapS": 33071,
      "wrapT": 33071
    },
    {
      "magFilter": 9729,
      "minFilter": 9987,
      "wrapS": 10497,
      "wrapT": 10497
    }
  ],
  "scene": 0,
  "scenes": [
    {
      "name": "OSG_Scene",
      "nodes": [
        0
      ]
    }
  ],
  "textures": [
    {
      "sampler": 0,
      "source": 0
    },
    {
      "sampler": 1,
      "source": 1
    }
  ]
}

